<?xml version="1.0" standalone="no"?>
<!DOCTYPE svg PUBLIC "-//W3C//DTD SVG 20010904//EN"
 "http://www.w3.org/TR/2001/REC-SVG-20010904/DTD/svg10.dtd">
<svg version="1.0" xmlns="http://www.w3.org/2000/svg"
 width="300.000000pt" height="223.000000pt" viewBox="0 0 300.000000 223.000000"
 preserveAspectRatio="xMidYMid meet">

<g transform="translate(0.000000,223.000000) scale(0.100000,-0.100000)"
fill="#000000" stroke="none">
<path d="M2010 650 c0 -5 -20 -10 -45 -10 -41 0 -45 -2 -45 -25 0 -14 5 -25
10 -25 6 0 10 5 10 10 0 6 9 10 20 10 28 0 25 -18 -5 -32 -28 -13 -33 -28 -9
-28 9 0 29 14 44 30 34 36 40 37 40 5 0 -22 4 -25 34 -25 24 0 38 6 48 23 24
38 12 57 -38 57 -24 0 -44 5 -44 10 0 6 -4 10 -10 10 -5 0 -10 -4 -10 -10z
m90 -49 c0 -9 -24 -21 -41 -21 -5 0 -9 7 -9 15 0 9 9 15 25 15 14 0 25 -4 25
-9z"/>
<path d="M2290 644 c0 -13 -6 -15 -32 -10 -18 4 -46 8 -63 9 l-29 2 0 -104
c-1 -74 3 -106 12 -109 9 -3 12 21 12 92 0 53 4 96 8 96 4 0 7 -29 7 -65 -1
-50 2 -65 13 -65 8 0 16 9 19 20 6 23 33 27 33 5 0 -9 -11 -27 -25 -41 -29
-29 -30 -34 -11 -34 19 0 56 47 56 71 0 11 5 19 10 19 6 0 10 -21 10 -46 0
-45 0 -45 33 -42 24 2 33 8 35 26 4 25 -13 30 -22 7 -10 -27 -26 -15 -26 20 0
28 4 35 20 35 11 0 20 5 20 11 0 7 -24 9 -70 7 -60 -2 -71 0 -76 14 -3 10 -1
26 5 35 9 16 10 16 11 2 0 -20 20 -29 65 -29 49 0 65 9 65 36 0 19 -5 24 -24
24 -13 0 -26 7 -30 15 -7 20 -26 19 -26 -1z m60 -44 c0 -5 -20 -10 -45 -10
-25 0 -45 5 -45 10 0 6 20 10 45 10 25 0 45 -4 45 -10z"/>
<path d="M959 645 c-1 -5 -1 -13 0 -17 0 -5 -6 -8 -14 -8 -8 0 -15 -4 -15 -10
0 -5 11 -10 24 -10 14 0 28 -4 31 -10 3 -6 -5 -10 -19 -10 -14 0 -28 -4 -31
-10 -4 -6 12 -10 40 -10 28 0 44 -4 40 -10 -3 -6 -19 -8 -36 -5 -16 3 -29 1
-29 -5 0 -5 16 -10 35 -10 19 0 35 -4 35 -10 0 -5 -20 -10 -45 -10 -51 0 -63
-20 -12 -21 l32 0 -39 -18 c-27 -11 -36 -20 -28 -25 7 -4 30 2 52 13 l40 21 0
-25 c0 -14 5 -25 10 -25 6 0 10 11 10 25 0 30 1 30 42 5 18 -11 39 -20 46 -20
25 0 6 24 -29 36 l-34 12 38 1 c53 1 46 21 -8 21 -25 0 -45 5 -45 10 0 6 16
10 35 10 19 0 35 5 35 10 0 6 -13 8 -29 5 -17 -3 -33 -1 -36 5 -4 6 10 10 34
10 23 0 41 5 41 10 0 6 -12 10 -26 10 -16 0 -23 4 -18 11 3 6 17 9 30 6 16 -3
24 0 24 9 0 8 -7 14 -16 14 -8 0 -13 4 -9 9 3 5 1 12 -5 16 -6 3 -13 -1 -16
-9 -3 -9 -13 -16 -21 -16 -9 0 -13 6 -9 15 3 9 0 15 -9 15 -8 0 -15 -7 -15
-15 0 -8 -4 -15 -10 -15 -5 0 -10 7 -10 15 0 8 -4 15 -10 15 -5 0 -10 -7 -10
-15 0 -20 -10 -19 -26 3 -7 9 -14 13 -15 7z m101 -55 c0 -5 -11 -10 -25 -10
-14 0 -25 5 -25 10 0 6 11 10 25 10 14 0 25 -4 25 -10z"/>
<path d="M1206 638 c4 -6 -1 -17 -12 -25 -18 -13 -18 -15 -1 -24 21 -12 22
-45 2 -53 -8 -3 -15 -10 -15 -16 0 -5 7 -10 15 -10 8 0 15 -9 15 -20 0 -11 -7
-23 -15 -26 -24 -9 -17 -24 10 -24 23 0 25 4 25 44 0 26 5 47 13 50 10 5 10 7
0 12 -7 3 -13 14 -13 25 0 20 39 35 66 25 22 -8 11 -31 -15 -30 -26 1 -27 -13
-1 -46 26 -33 25 -35 -10 -50 -16 -7 -30 -16 -30 -21 0 -14 28 -11 54 6 21 14
26 14 54 -2 34 -20 58 -9 28 12 -10 8 -23 16 -29 18 -6 2 0 17 13 35 25 33 24
42 -7 46 -10 2 -19 10 -21 19 -3 13 4 17 27 17 17 0 31 5 31 10 0 6 -13 10
-30 10 -20 0 -30 5 -30 15 0 19 -9 19 -24 1 -6 -7 -26 -16 -43 -20 -28 -5 -33
-3 -33 14 0 11 -7 20 -16 20 -9 0 -12 -5 -8 -12z m132 -114 c-9 -9 -21 -13
-27 -10 -20 13 -11 26 16 26 25 0 26 -1 11 -16z"/>
<path d="M1442 630 c-13 -11 -20 -24 -17 -30 5 -8 15 -4 31 11 40 38 28 54
-14 19z"/>
<path d="M1520 631 c0 -13 -9 -21 -28 -26 -16 -3 -39 -19 -50 -35 -23 -30 -29
-56 -12 -45 6 4 10 -12 10 -39 0 -25 5 -46 10 -46 6 0 10 24 10 54 0 70 7 86
36 86 23 0 24 -3 24 -70 0 -40 4 -70 10 -70 6 0 10 30 10 70 0 60 2 70 18 70
13 0 14 -2 3 -9 -16 -10 -6 -91 11 -91 7 0 8 15 4 40 -5 32 -3 40 9 40 11 0
15 -12 15 -50 0 -44 -3 -50 -21 -50 -11 0 -17 -4 -14 -10 3 -5 17 -10 31 -10
23 0 24 3 24 60 0 33 4 60 10 60 6 0 10 7 10 15 0 10 -11 15 -35 15 -24 0 -35
5 -35 15 0 10 11 15 35 15 19 0 35 5 35 11 0 6 -14 9 -33 8 -18 -2 -39 1 -46
6 -11 6 -13 3 -9 -13 4 -12 2 -22 -3 -22 -5 0 -9 9 -9 20 0 11 -4 20 -10 20
-5 0 -10 -9 -10 -19z"/>
<path d="M1723 642 c-29 -2 -53 -7 -53 -13 0 -5 7 -9 15 -9 19 0 19 -3 -5 -50
-22 -43 -26 -65 -10 -55 6 4 10 -10 10 -34 0 -39 11 -53 25 -31 4 6 15 8 26 5
17 -6 19 -1 19 54 0 55 -2 61 -21 61 -16 0 -19 4 -13 23 8 27 6 25 24 27 39 6
47 0 42 -30 -2 -16 -8 -27 -13 -24 -5 3 -9 -2 -9 -10 0 -9 5 -16 11 -16 11 0
9 -30 -7 -79 -5 -18 -4 -23 7 -19 8 2 20 25 28 51 20 66 41 62 41 -8 0 -30 5
-55 10 -55 6 0 10 25 10 55 0 42 3 55 15 55 8 0 15 5 15 10 0 6 -7 13 -15 16
-17 7 -21 54 -5 54 6 0 10 6 10 13 0 14 -38 16 -157 9z m117 -46 c0 -13 -7
-26 -15 -30 -11 -4 -15 2 -15 24 0 20 5 30 15 30 9 0 15 -9 15 -24z m-110 -75
c0 -17 -4 -33 -10 -36 -6 -4 -10 8 -10 29 0 20 5 36 10 36 6 0 10 -13 10 -29z"/>
<path d="M690 615 c0 -11 11 -15 40 -15 l40 0 0 -65 0 -65 -45 0 c-25 0 -45
-4 -45 -10 0 -6 42 -10 105 -10 63 0 105 4 105 10 0 6 -20 10 -45 10 l-45 0 0
65 0 65 40 0 c29 0 40 4 40 15 0 12 -17 15 -95 15 -78 0 -95 -3 -95 -15z"/>
<path d="M1481 523 c-9 -45 1 -86 12 -47 14 50 17 83 8 88 -5 3 -14 -15 -20
-41z"/>
<path d="M1990 545 c0 -10 -11 -15 -35 -15 -19 0 -35 -4 -35 -10 0 -5 14 -10
30 -10 38 0 38 -16 0 -38 -33 -19 -39 -32 -14 -32 9 0 32 16 51 35 44 44 61
44 65 3 3 -30 6 -33 38 -33 31 0 35 3 38 28 4 32 -13 37 -21 6 -9 -32 -32 -17
-30 19 2 29 -1 32 -28 32 -19 0 -29 5 -29 15 0 8 -7 15 -15 15 -8 0 -15 -7
-15 -15z"/>
<path d="M683 315 c0 -27 2 -38 4 -22 2 15 2 37 0 50 -2 12 -4 0 -4 -28z"/>
<path d="M830 345 c0 -8 -9 -15 -20 -15 -16 0 -20 -7 -20 -30 0 -25 4 -30 25
-30 23 0 25 4 25 45 0 25 -2 45 -5 45 -3 0 -5 -7 -5 -15z m-2 -48 c2 -10 -3
-17 -12 -17 -10 0 -16 9 -16 21 0 24 23 21 28 -4z"/>
<path d="M1201 318 c-1 -27 3 -48 7 -48 4 0 6 17 4 38 -5 58 -10 62 -11 10z"/>
<path d="M1268 353 c7 -2 12 -22 12 -44 0 -21 5 -39 10 -39 6 0 10 18 10 39 0
22 5 42 13 44 6 3 -4 5 -23 5 -19 0 -29 -2 -22 -5z"/>
<path d="M1463 315 c0 -27 2 -37 4 -22 5 33 25 31 34 -4 7 -23 7 -23 8 4 1 21
-5 30 -18 34 -11 3 -22 12 -24 22 -3 9 -5 -6 -4 -34z"/>
<path d="M1672 318 c-2 -40 1 -48 16 -48 11 0 13 3 5 8 -6 4 -13 25 -16 47 -4
40 -4 40 -5 -7z"/>
<path d="M998 339 c-6 -17 3 -69 11 -69 7 0 6 69 -2 76 -3 3 -7 0 -9 -7z"/>
<path d="M721 298 c2 -30 2 -31 6 -5 5 34 30 36 36 2 4 -23 4 -23 3 2 -1 21
-7 29 -23 31 -20 3 -23 -1 -22 -30z"/>
<path d="M863 305 c2 -23 7 -31 25 -33 19 -3 22 1 21 30 -2 31 -2 31 -6 5 -5
-33 -24 -31 -35 4 -6 22 -7 21 -5 -6z"/>
<path d="M937 323 c-12 -12 -7 -22 16 -29 l22 -8 -25 -7 -25 -7 28 -1 c33 -1
37 24 5 35 l-23 8 25 7 c22 6 22 7 4 8 -11 1 -24 -2 -27 -6z"/>
<path d="M1041 298 c1 -21 3 -26 6 -13 3 11 12 26 21 33 14 11 13 12 -6 12
-18 0 -22 -5 -21 -32z"/>
<path d="M1102 300 c0 -19 2 -27 5 -17 2 9 2 25 0 35 -3 9 -5 1 -5 -18z"/>
<path d="M1145 322 c23 -8 30 -42 8 -42 -8 0 -11 5 -8 10 3 6 1 10 -4 10 -6 0
-11 -7 -11 -15 0 -9 10 -15 26 -15 22 0 25 4 22 28 -2 21 -9 27 -28 29 -21 2
-22 1 -5 -5z"/>
<path d="M1326 315 c-9 -24 4 -45 28 -44 16 1 17 2 4 6 -19 5 -25 43 -8 43 6
0 10 -4 10 -10 0 -5 4 -10 10 -10 5 0 7 7 4 15 -4 8 -14 15 -24 15 -10 0 -20
-7 -24 -15z"/>
<path d="M1394 315 c-10 -24 4 -45 28 -44 l23 0 -22 9 c-13 5 -23 14 -23 20 0
6 10 15 23 20 l22 9 -23 0 c-12 1 -25 -6 -28 -14z"/>
<path d="M1531 298 c2 -31 2 -31 6 -5 2 15 10 27 18 27 8 0 16 -12 18 -27 4
-26 4 -26 6 5 1 28 -2 32 -24 32 -22 0 -25 -4 -24 -32z"/>
<path d="M1604 316 c-9 -24 3 -46 26 -46 17 0 21 5 18 27 -3 31 -34 44 -44 19z
m36 -16 c0 -11 -7 -20 -15 -20 -15 0 -21 21 -8 33 12 13 23 7 23 -13z"/>
<path d="M1710 300 c0 -27 3 -31 23 -28 16 2 22 10 22 28 0 18 -6 26 -22 28
-20 3 -23 -1 -23 -28z m35 0 c0 -7 -6 -15 -12 -17 -8 -3 -13 4 -13 17 0 13 5
20 13 18 6 -3 12 -11 12 -18z"/>
<path d="M1780 300 c0 -20 5 -30 15 -30 21 0 19 -20 -2 -21 -12 0 -13 -2 -5
-6 21 -8 42 18 42 53 0 30 -3 34 -25 34 -21 0 -25 -5 -25 -30z m30 0 c0 -11
-4 -20 -10 -20 -5 0 -10 9 -10 20 0 11 5 20 10 20 6 0 10 -9 10 -20z"/>
<path d="M1850 304 c6 -15 8 -35 5 -45 -11 -33 5 -20 21 16 18 44 18 68 -1 35
-10 -18 -14 -20 -15 -8 0 9 -4 20 -10 23 -6 4 -6 -3 0 -21z"/>
<path d="M681 173 c1 -26 3 -40 6 -30 6 22 22 22 38 1 10 -14 12 -10 11 27 -1
40 -3 44 -28 47 -27 3 -28 2 -27 -45z m49 17 c0 -5 -9 -10 -20 -10 -11 0 -20
5 -20 10 0 6 9 10 20 10 11 0 20 -4 20 -10z"/>
<path d="M1153 175 c0 -27 2 -38 4 -22 2 15 10 27 18 27 8 0 16 -12 18 -27 l4
-28 2 28 c1 21 -4 30 -18 34 -11 3 -22 12 -24 22 -3 9 -5 -6 -4 -34z"/>
<path d="M1253 175 c0 -27 2 -38 4 -22 2 15 2 37 0 50 -2 12 -4 0 -4 -28z"/>
<path d="M1420 170 c0 -31 4 -40 18 -40 14 0 15 2 2 10 -12 7 -13 13 -4 27 9
14 8 21 -2 31 -12 11 -14 6 -14 -28z"/>
<path d="M1498 199 c-6 -17 3 -69 11 -69 7 0 6 69 -2 76 -3 3 -7 0 -9 -7z"/>
<path d="M1618 199 c-6 -17 3 -69 11 -69 7 0 6 69 -2 76 -3 3 -7 0 -9 -7z"/>
<path d="M764 176 c-10 -25 3 -46 28 -45 22 0 22 1 3 9 -18 8 -18 9 -2 9 12 1
17 7 15 18 -4 23 -36 29 -44 9z m36 -6 c0 -5 -4 -10 -10 -10 -5 0 -10 5 -10
10 0 6 5 10 10 10 6 0 10 -4 10 -10z"/>
<path d="M835 180 c-9 -14 3 -30 23 -31 11 -1 8 -4 -8 -9 l-25 -8 28 -1 c33
-1 37 24 5 33 -22 7 -22 7 -3 16 16 7 17 9 3 9 -9 1 -20 -3 -23 -9z"/>
<path d="M897 176 c-10 -25 3 -46 27 -45 20 0 20 1 2 8 -19 7 -19 8 3 14 13 3
21 11 19 19 -7 19 -44 22 -51 4z m33 -6 c0 -5 -4 -10 -10 -10 -5 0 -10 5 -10
10 0 6 5 10 10 10 6 0 10 -4 10 -10z"/>
<path d="M983 183 c23 -6 22 -23 -3 -23 -11 0 -20 -7 -20 -15 0 -9 9 -15 25
-15 21 0 25 5 25 30 0 25 -4 30 -22 29 -17 -1 -19 -2 -5 -6z m14 -39 c-3 -3
-12 -4 -19 -1 -8 3 -5 6 6 6 11 1 17 -2 13 -5z"/>
<path d="M1030 160 c0 -16 5 -30 10 -30 6 0 10 11 10 24 0 15 7 26 18 29 10 3
6 5 -10 6 -25 1 -28 -3 -28 -29z"/>
<path d="M1086 175 c-9 -24 4 -45 28 -44 16 1 17 2 4 6 -10 2 -18 13 -18 23 0
10 8 21 18 23 13 4 12 5 -4 6 -12 0 -24 -6 -28 -14z"/>
<path d="M1291 158 c2 -31 2 -31 6 -5 5 32 28 31 27 -2 0 -11 3 -21 8 -21 5 0
8 12 6 28 -2 19 -9 28 -25 30 -20 3 -23 -1 -22 -30z"/>
<path d="M1360 175 c0 -9 8 -19 18 -22 14 -6 13 -8 -8 -14 l-25 -7 28 -1 c18
-1 27 4 27 14 0 8 -7 15 -15 15 -21 0 -19 18 3 23 13 4 11 5 -5 6 -15 1 -23
-5 -23 -14z"/>
<path d="M1468 160 c-3 -17 -1 -30 4 -30 4 0 8 14 8 30 0 17 -2 30 -4 30 -2 0
-6 -13 -8 -30z"/>
<path d="M1543 165 c2 -23 7 -31 25 -33 19 -3 22 1 21 30 -2 31 -2 31 -6 5 -5
-33 -24 -31 -35 4 -6 22 -7 21 -5 -6z"/>
<path d="M1667 184 c-4 -4 -7 -18 -7 -31 0 -19 5 -23 28 -22 l27 1 -25 8 c-25
8 -25 8 -2 9 17 1 22 6 20 18 -3 19 -29 29 -41 17z m28 -14 c3 -5 -1 -10 -9
-10 -9 0 -16 5 -16 10 0 6 4 10 9 10 6 0 13 -4 16 -10z"/>
</g>
</svg>
